<?xml version="1.0" encoding="UTF-8" standalone="no"?>
<svg
   height="48"
   width="48"
   version="1.1"
   id="svg4123"
   sodipodi:docname="city_search.svg"
   inkscape:version="1.2.1 (1:1.2.1+202210291243+9c6d41e410)"
   xmlns:inkscape="http://www.inkscape.org/namespaces/inkscape"
   xmlns:sodipodi="http://sodipodi.sourceforge.net/DTD/sodipodi-0.dtd"
   xmlns="http://www.w3.org/2000/svg"
   xmlns:svg="http://www.w3.org/2000/svg">
  <defs
     id="defs4127" />
  <sodipodi:namedview
     id="namedview4125"
     pagecolor="#ffffff"
     bordercolor="#000000"
     borderopacity="0.25"
     inkscape:showpageshadow="2"
     inkscape:pageopacity="0.0"
     inkscape:pagecheckerboard="0"
     inkscape:deskcolor="#d1d1d1"
     showgrid="false"
     inkscape:zoom="1.5504789"
     inkscape:cx="18.703898"
     inkscape:cy="17.736455"
     inkscape:window-width="1846"
     inkscape:window-height="1016"
     inkscape:window-x="74"
     inkscape:window-y="27"
     inkscape:window-maximized="1"
     inkscape:current-layer="svg4123" />
  <path
     d="M 2.5931728,28.859827 12.116129,19.33687 q 1.086269,0.941434 2.534628,1.466463 1.448357,0.525031 3.077761,0.525031 3.910567,0 6.62624,-2.715672 2.715672,-2.715672 2.715672,-6.553823 0,-3.838149 -2.715672,-6.553821 -2.715673,-2.715672 -6.590031,-2.715672 -3.838149,0 -6.535716,2.715672 -2.6975692,2.715672 -2.6975692,6.553821 0,1.556986 0.5069258,3.005344 0.5069259,1.448358 1.5207764,2.715672 L 0.9999785,27.266633 Z M 17.764726,19.155826 q -2.932925,0 -4.996835,-2.082015 -2.063912,-2.082016 -2.063912,-5.014942 0,-2.932925 2.063912,-5.01494 2.06391,-2.0820154 4.996835,-2.0820154 2.969136,0 5.05115,2.0820154 2.082016,2.082015 2.082016,5.01494 0,2.932926 -2.082016,5.014942 -2.082014,2.082015 -5.05115,2.082015 z"
     id="use4895"
     style="stroke-width:1;stroke:#000000;stroke-opacity:1;stroke-dasharray:none" />
  <path
     id="path4121"
     style="stroke:#000000;stroke-width:1;stroke-dasharray:none;stroke-opacity:1"
     d="m 31.792215,7.191216 c -1.546547,0 -3.021906,0.20931 -4.425696,0.625878 l 0.738323,2.734766 c 1.153258,-0.339196 2.382606,-0.509188 3.687373,-0.509188 3.453423,0 6.376601,1.188111 8.768652,3.564319 2.392048,2.376209 3.587656,5.433191 3.587656,9.171758 0,2.376209 -1.005085,5.125979 -3.016942,8.246732 -2.011855,3.120754 -5.125556,6.596262 -9.339366,10.429878 -4.11876,-3.833616 -7.20785,-7.309124 -9.267231,-10.429878 -2.05938,-3.120753 -3.089077,-5.870523 -3.089077,-8.246732 l -2.847212,-0.26308 c -0.0011,0.08807 0,-0.08874 0,0 0,3.168278 1.255622,6.876881 3.774403,10.599606 2.518779,3.722727 6.328233,7.754809 11.42916,12.095349 5.100928,-4.34054 8.910381,-8.372622 11.42916,-12.095349 2.518781,-3.722725 3.778603,-7.168248 3.778603,-10.336526 0,-4.752415 -1.529552,-8.537257 -4.586939,-11.357025 C 39.355693,8.601958 35.81597,7.191216 31.792258,7.191216 Z m -8.777136,2.741132 c -0.633305,0.442818 -1.247166,0.939219 -1.843687,1.489376 -1.771172,1.633517 -3.02688,3.593007 -3.772239,5.874762 l 3.118781,-0.05941 v 0 c 0.592409,-1.352333 1.424416,-2.556012 2.505652,-3.630088 0.408816,-0.406108 0.835277,-0.775025 1.275093,-1.111728 z m 8.777136,9.139933 c -0.9188,0 -1.703378,0.324327 -2.352876,0.973823 -0.649496,0.649497 -0.973822,1.434076 -0.973822,2.352876 0,0.918799 0.324326,1.703378 0.973822,2.352875 0.649498,0.649497 1.434076,0.973823 2.352876,0.973823 0.918801,0 1.703379,-0.324326 2.352876,-0.973823 0.649496,-0.649497 0.973823,-1.434076 0.973823,-2.352875 0,-0.9188 -0.324326,-1.703379 -0.973823,-2.352876 -0.649497,-0.649496 -1.434075,-0.973823 -2.352876,-0.973823 z"
     sodipodi:nodetypes="sccsssscsccsscssssscccccsccsssssssss" />
</svg>
