<?xml version="1.0" encoding="UTF-8" standalone="no"?>
<svg
   width="512"
   height="512"
   version="1.1"
   viewBox="0 0 135.47 135.47"
   id="svg2939"
   sodipodi:docname="search_icon.svg"
   inkscape:version="1.2 (1:1.2.1+202207142221+cd75a1ee6d)"
   xml:space="preserve"
   inkscape:export-filename="search_icon1.svg"
   inkscape:export-xdpi="96"
   inkscape:export-ydpi="96"
   xmlns:inkscape="http://www.inkscape.org/namespaces/inkscape"
   xmlns:sodipodi="http://sodipodi.sourceforge.net/DTD/sodipodi-0.dtd"
   xmlns:xlink="http://www.w3.org/1999/xlink"
   xmlns="http://www.w3.org/2000/svg"
   xmlns:svg="http://www.w3.org/2000/svg"><sodipodi:namedview
     id="namedview2941"
     pagecolor="#ffffff"
     bordercolor="#000000"
     borderopacity="0.25"
     inkscape:showpageshadow="2"
     inkscape:pageopacity="0.0"
     inkscape:pagecheckerboard="0"
     inkscape:deskcolor="#d1d1d1"
     showgrid="false"
     inkscape:zoom="0.5814296"
     inkscape:cx="149.63118"
     inkscape:cy="289.80293"
     inkscape:window-width="1848"
     inkscape:window-height="1016"
     inkscape:window-x="72"
     inkscape:window-y="27"
     inkscape:window-maximized="1"
     inkscape:current-layer="svg2939" /><defs
     id="defs2927"><linearGradient
       inkscape:collect="always"
       id="linearGradient3758"><stop
         style="stop-color:#0dfff2;stop-opacity:1;"
         offset="0"
         id="stop3754" /><stop
         style="stop-color:#f9ff06;stop-opacity:1;"
         offset="1"
         id="stop3756" /></linearGradient><linearGradient
       id="b"
       x1="3.0934"
       x2="132.37"
       y1="67.733"
       y2="67.733"
       gradientTransform="matrix(.85957 0 0 .85957 9.5119 9.5119)"
       gradientUnits="userSpaceOnUse"><stop
         stop-color="#ff0"
         offset="0"
         id="stop2917" /><stop
         stop-color="#f60"
         offset="1"
         id="stop2919" /></linearGradient><linearGradient
       id="a"
       x1="-72.09"
       x2="90.015"
       y1="23.121"
       y2="37.241"
       gradientUnits="userSpaceOnUse"><stop
         stop-color="#0ff"
         offset="0"
         id="stop2922" /><stop
         stop-color="#ff0"
         offset="1"
         id="stop2924" /></linearGradient><linearGradient
       inkscape:collect="always"
       xlink:href="#linearGradient3758"
       id="linearGradient3760"
       x1="3.1750795"
       y1="67.735"
       x2="132.29492"
       y2="67.735"
       gradientUnits="userSpaceOnUse" /></defs><path
     d="m67.733 12.171a55.562 55.562 0 0 0-55.562 55.562 55.562 55.562 0 0 0 55.562 55.562 55.562 55.562 0 0 0 55.562-55.562 55.562 55.562 0 0 0-55.562-55.562zm0 10.077a45.486 45.486 0 0 1 45.485 45.486 45.486 45.486 0 0 1-45.485 45.485 45.486 45.486 0 0 1-45.486-45.485 45.486 45.486 0 0 1 45.486-45.486z"
     fill="url(#b)"
     stroke-linecap="round"
     stroke-linejoin="round"
     stroke-width=".45486"
     id="path2929"
     style="stroke:none;stroke-opacity:1" /><g
     stroke-linecap="round"
     stroke-linejoin="round"
     stroke-width="0.52917"
     id="g2937"
     transform="translate(-130.73816,-50.944207)"><path
       transform="matrix(0.78668,0,0,0.78668,58.092,40.547)"
       d="m 3.0107,-44.936 -13.978,55.555 -60.859,23.939 58.452,23.766 25.63,60.316 25.78,-59.343 54.045,-34.214 -53.574,-14.181 z m 5.4789,29.502 21.603,32.155 39.697,12.093 -39.697,23.58 -17.837,32.613 -17.837,-32.613 -32.613,-17.837 32.613,-17.837 z"
       fill="url(#a)"
       stroke="#181800"
       id="path2931"
       style="fill:url(#a)" /><g
       fill="#f2a703"
       aria-label="S"
       id="g2935"><path
         d="m 68.876,50.182 -2.8174,-7.9507 1.0394,24.207 -6.9906,-8.8847 -3.0796,3.492 9.359,6.0531 -15.9,-0.6604 -7.455,2.1708 23.355,0.01356 -11.633,10.668 1.8796,1.6256 10.465,-11.633 -0.7112,16.002 2.9212,7.2105 -1.0416,-23.212 10.922,11.633 1.5748,-1.6256 -11.887,-10.668 h 16.104 l 6.7762,-2.9883 -22.88,1.4643 11.887,-10.77 -1.5748,-1.5748 -10.922,11.684 z"
         fill="#f2a703"
         id="path2933" /></g></g><path
     d="M 10.364705,98.694424 3.1750795,93.412257 30.759771,49.394124 48.36702,69.935918 71.69663,32.080327 87.68988,55.85012 q -2.34763,0.293465 -4.54854,0.953707 -2.2009,0.660242 -4.40181,1.540638 L 72.13681,48.220295 49.68757,84.755347 31.93358,64.06682 Z M 125.98566,129.36039 106.32423,109.69896 q -3.08128,2.2009 -6.676089,3.37472 -3.59481,1.17381 -7.40972,1.17381 -10.41762,0 -17.68061,-7.26299 -7.26299,-7.26298 -7.26299,-17.680605 0,-10.417624 7.26299,-17.680617 7.26299,-7.262992 17.68061,-7.262992 10.417619,0 17.680619,7.262992 7.26299,7.262993 7.26299,17.680617 0,3.814907 -1.24719,7.409715 -1.24717,3.59482 -3.30135,6.82282 l 19.66143,19.5147 z M 92.23842,105.44387 q 6.74945,0 11.44472,-4.69527 4.69527,-4.695265 4.69527,-11.444705 0,-6.74945 -4.69527,-11.44472 -4.69527,-4.695259 -11.44472,-4.695259 -6.74944,0 -11.44471,4.695259 -4.69527,4.69527 -4.69527,11.44472 0,6.74944 4.69527,11.444705 4.69527,4.69527 11.44471,4.69527 z m 10.85781,-48.12649 q -2.2009,-0.880396 -4.54854,-1.173806 -2.34763,-0.293464 -4.842,-0.586931 l 31.39961,-49.4470325 7.18962,5.2821685 z"
     id="path3191"
     style="stroke-width:0.52917969;fill-opacity:1;fill:url(#linearGradient3760);stroke:#000000;stroke-opacity:1;stroke-dasharray:none" /></svg>
